<?xml version="1.0" encoding="UTF-8" standalone="no"?>
<!-- Created with Inkscape (http://www.inkscape.org/) -->

<svg
   xmlns:dc="http://purl.org/dc/elements/1.1/"
   xmlns:cc="http://creativecommons.org/ns#"
   xmlns:rdf="http://www.w3.org/1999/02/22-rdf-syntax-ns#"
   xmlns:svg="http://www.w3.org/2000/svg"
   xmlns="http://www.w3.org/2000/svg"
   xmlns:sodipodi="http://sodipodi.sourceforge.net/DTD/sodipodi-0.dtd"
   xmlns:inkscape="http://www.inkscape.org/namespaces/inkscape"
   width="205.45135"
   height="72.411491"
   id="svg3105"
   version="1.1"
   inkscape:version="0.48.5 r10040"
   sodipodi:docname="New document 2">
  <defs
     id="defs3107" />
  <sodipodi:namedview
     id="base"
     pagecolor="#ffffff"
     bordercolor="#666666"
     borderopacity="1.0"
     inkscape:pageopacity="0.0"
     inkscape:pageshadow="2"
     inkscape:zoom="2.8"
     inkscape:cx="102.72568"
     inkscape:cy="36.205747"
     inkscape:document-units="px"
     inkscape:current-layer="layer1"
     showgrid="false"
     inkscape:window-width="1362"
     inkscape:window-height="725"
     inkscape:window-x="0"
     inkscape:window-y="20"
     inkscape:window-maximized="0"
     fit-margin-top="0"
     fit-margin-left="0"
     fit-margin-right="0"
     fit-margin-bottom="0"
     showborder="false"
     inkscape:showpageshadow="false" />
  <metadata
     id="metadata3110">
    <rdf:RDF>
      <cc:Work
         rdf:about="">
        <dc:format>image/svg+xml</dc:format>
        <dc:type
           rdf:resource="http://purl.org/dc/dcmitype/StillImage" />
        <dc:title></dc:title>
      </cc:Work>
    </rdf:RDF>
  </metadata>
  <g
     inkscape:label="Layer 1"
     inkscape:groupmode="layer"
     id="layer1"
     transform="translate(-272.27432,-496.15644)">
    <g
       transform="translate(-18.474319,174.96793)"
       id="g89">
      <path
         inkscape:connector-curvature="0"
         d="m 453.4,369.2 c -9.9,-16.2 -30,-27.9 -53.6,-25 -23.5,2.9 -42.6,12.8 -65,23.8 -2,1 -5,2.1 -7.4,2.9 -0.9,0.4 -1.8,0.7 -2.8,1 -0.5,0.1 -0.9,0.3 -1.4,0.4 0,0 0,0 0,0 l 0,0 c -14,3.5 -28,-4 -31.6,-17.3 -3.7,-13.7 5,-28.2 19.5,-32.6 14.5,-4.3 29.3,3.2 33,16.9 2.4,8.8 -0.4,18 -6.6,24.6 6.5,-3.4 13.5,-7.6 21,-12.7 23,-15.5 43.9,-21.8 63.9,-19.6 30.3,3.3 42.9,25.8 53.4,41.4 10.4,15.7 20.4,20.6 20.4,20.6 l -35.8,-1.1 c 0.1,-3.7 -0.4,-12.6 -7,-23.3 z"
         id="path91" />
      <ellipse
         sodipodi:ry="9.5"
         sodipodi:rx="9.5"
         sodipodi:cy="381.20001"
         sodipodi:cx="398.89999"
         d="m 408.39999,381.20001 c 0,5.24671 -4.25329,9.5 -9.5,9.5 -5.2467,0 -9.5,-4.25329 -9.5,-9.5 0,-5.2467 4.2533,-9.5 9.5,-9.5 5.24671,0 9.5,4.2533 9.5,9.5 z"
         transform="matrix(0.02993011,-0.9996,0.9996,0.02993011,5.8993,768.4807)"
         cx="398.89999"
         cy="381.20001"
         rx="9.5"
         ry="9.5"
         id="ellipse93" />
    </g>
  </g>
</svg>
