<?xml version="1.0" encoding="UTF-8" standalone="no"?>
<!-- Created with Inkscape (http://www.inkscape.org/) -->

<svg
   xmlns:dc="http://purl.org/dc/elements/1.1/"
   xmlns:cc="http://creativecommons.org/ns#"
   xmlns:rdf="http://www.w3.org/1999/02/22-rdf-syntax-ns#"
   xmlns:svg="http://www.w3.org/2000/svg"
   xmlns="http://www.w3.org/2000/svg"
   xmlns:sodipodi="http://sodipodi.sourceforge.net/DTD/sodipodi-0.dtd"
   xmlns:inkscape="http://www.inkscape.org/namespaces/inkscape"
   width="434"
   height="160.16977"
   id="svg3142"
   version="1.1"
   inkscape:version="0.48.5 r10040"
   sodipodi:docname="logo_name_bianco.svg">
  <defs
     id="defs3144" />
  <sodipodi:namedview
     id="base"
     pagecolor="#ffffff"
     bordercolor="#666666"
     borderopacity="1.0"
     inkscape:pageopacity="0.0"
     inkscape:pageshadow="2"
     inkscape:zoom="0.35"
     inkscape:cx="-287.28571"
     inkscape:cy="59.58488"
     inkscape:document-units="px"
     inkscape:current-layer="layer1"
     showgrid="false"
     inkscape:window-width="1362"
     inkscape:window-height="725"
     inkscape:window-x="0"
     inkscape:window-y="20"
     inkscape:window-maximized="0"
     fit-margin-top="0"
     fit-margin-left="0"
     fit-margin-right="0"
     fit-margin-bottom="0" />
  <metadata
     id="metadata3147">
    <rdf:RDF>
      <cc:Work
         rdf:about="">
        <dc:format>image/svg+xml</dc:format>
        <dc:type
           rdf:resource="http://purl.org/dc/dcmitype/StillImage" />
        <dc:title></dc:title>
      </cc:Work>
    </rdf:RDF>
  </metadata>
  <g
     inkscape:label="Layer 1"
     inkscape:groupmode="layer"
     id="layer1"
     transform="translate(-158,-431.7773)">
    <g
       transform="translate(83,-52.752934)"
       id="g3"
       inkscape:export-filename="/home/risca/logo.png"
       inkscape:export-xdpi="90"
       inkscape:export-ydpi="90"
       style="fill:#ffffff;fill-opacity:1">
      <path
         inkscape:connector-curvature="0"
         d="m 380.1,549.3 c -15.4,-23.3 -45.5,-39.8 -80,-34.5 -34.5,5.3 -62.2,20.7 -94.6,37.9 -2.9,1.5 -7.2,3.3 -10.7,4.6 -1.3,0.6 -2.6,1.1 -4,1.6 -0.7,0.2 -1.3,0.4 -2,0.6 0,0 0,0 0,0 l 0,0 c -20.5,5.7 -41.4,-4.7 -47.3,-24 -6.1,-19.9 6.1,-41.8 27.3,-48.8 21.2,-7 43.3,3.5 49.3,23.4 3.9,12.9 0.2,26.6 -8.6,36.5 9.4,-5.3 19.5,-11.8 30.4,-19.6 33.1,-23.8 63.6,-34 93.2,-31.7 44.7,3.5 64.3,36 80.4,58.7 16,22.6 30.9,29.5 30.9,29.5 h -52.7 c -0.2,-5.6 -1.4,-18.8 -11.6,-34.2 z"
         id="path5"
         style="fill:#ffffff;fill-opacity:1" />
      <g
         id="g7"
         style="fill:#ffffff;fill-opacity:1">
        <path
           inkscape:connector-curvature="0"
           d="m 291,571.9 c -0.2,-0.3 -0.4,-0.5 -0.8,-0.4 -0.1,0 -0.2,0 -0.2,0 -0.2,-0.2 -0.4,-0.4 -0.6,-0.4 0,-0.1 0.1,-0.3 0.1,-0.4 0,0 0,0 0,0 0,0.1 -0.1,0.1 -0.1,0.2 -0.3,-0.2 -0.4,-0.2 -0.6,0 -0.2,-0.2 -0.2,-0.2 -0.5,-0.1 -0.2,-0.3 -0.3,-0.3 -0.6,0.3 0,-0.1 0,-0.2 0,-0.3 0,-0.1 0.1,-0.2 0.1,-0.3 0,0 0,0 0,-0.1 -0.2,0.1 -0.3,0.2 -0.5,0.3 -0.1,0 -0.1,0.1 -0.2,0.2 -0.2,0.3 -0.3,0.3 -0.5,0 0,0 0,-0.1 0,-0.1 0,-0.6 0,-1.2 -0.1,-1.8 0.3,0.1 0.4,0.3 0.7,0.2 -0.1,-0.1 -0.2,-0.1 -0.3,-0.2 -0.4,-0.1 -0.4,-0.2 -0.4,-0.5 0,-0.4 0.1,-0.8 0.1,-1.3 0,-0.2 0.1,-0.3 0.3,-0.4 0.2,-0.1 0.2,-0.2 0.1,-0.3 0,0 0,-0.1 0,-0.2 0.3,0.1 0.3,0 0.3,-0.2 0,-0.1 0.1,-0.2 0.1,-0.2 0,0 0.1,-0.1 0.2,-0.1 0.1,0 0.3,0 0.4,0 -0.1,-0.3 -0.1,-0.4 0.3,-0.5 0.1,0 0.2,-0.1 0.3,-0.1 0.1,0.3 0.1,0.3 0.4,0.2 0.2,-0.1 0.3,-0.1 0.5,-0.1 0.1,0 0.1,0 0.3,-0.1 -0.1,-0.1 -0.1,-0.2 -0.2,-0.3 -0.3,0.2 -0.3,0.2 -0.3,0 0,0 -0.1,0.1 -0.1,0.1 0,0 -0.1,0 -0.1,0 0,0 0,-0.1 0,-0.1 0,-0.2 -0.1,-0.3 -0.3,-0.2 -0.1,0 -0.3,0.1 -0.4,0.1 0.2,-0.2 0.4,-0.4 0.8,-0.3 0,0.3 0.1,0.3 0.3,0.1 0.1,-0.1 0.2,-0.1 0.3,-0.1 0.1,-0.1 0.2,-0.1 0.3,-0.2 0,0 0.1,0 0.1,0 0,0 0,0.1 0,0.1 -0.1,0.1 -0.2,0.3 -0.3,0.4 0,0 0,0 0,0.1 0.3,0 0.7,0 1,0 0,-0.2 -0.1,-0.4 -0.3,-0.4 -0.1,0 -0.2,0 -0.3,-0.1 0.1,-0.1 0.1,-0.2 0.2,-0.3 0.1,-0.1 0.1,-0.1 -0.1,-0.2 -0.1,0 -0.2,-0.1 -0.3,-0.2 -0.1,-0.1 -0.2,-0.2 -0.2,-0.2 -0.2,0 -0.3,-0.1 -0.4,-0.3 -0.1,-0.1 -0.3,-0.3 -0.4,-0.4 -0.1,-0.1 -0.2,-0.1 -0.2,0 0,0 -0.1,0.1 -0.1,0.1 -0.2,0.2 -0.3,0.2 -0.5,0 0.2,-0.5 0.3,-0.6 0.8,-0.4 0.1,-0.2 -0.1,-0.3 -0.3,-0.4 0,0 0,0 0,-0.1 0.1,0 0.1,-0.1 0.2,0 0.3,0.1 0.4,0.1 0.6,-0.2 -0.2,-0.1 -0.3,-0.1 -0.5,-0.2 0.3,-0.4 0.6,-0.7 0.9,-1.1 0.1,-0.1 0.2,0 0.2,0.1 0,0.1 0.1,0.2 0.1,0.4 0,0.1 0,0.1 0,0.2 0.4,-0.2 0.4,-0.2 0.5,-0.1 0,0 -0.1,0 -0.1,0 -0.2,0 -0.3,0 -0.3,0.2 0,0.2 0.1,0.2 0.3,0.2 -0.2,0.3 -0.1,0.5 0.2,0.6 0,0 0.1,0 0.1,0 0,0.4 0.4,0.4 0.6,0.6 0,0 0.2,0 0.2,0 0.1,0 0.2,0.1 0.3,0.1 0.1,0 0.2,-0.1 0.2,-0.3 0,-0.1 0.1,-0.1 0.1,-0.1 0.1,0 0.2,-0.1 0.1,-0.2 0,-0.1 0,-0.1 0.1,-0.2 0.2,-0.1 0.4,-0.2 0.7,-0.1 0.1,0 0.2,0 0.2,-0.1 0.1,-0.1 0.2,-0.2 0.4,-0.2 0.2,0 0.5,-0.1 0.7,-0.2 0.1,0 0.2,0 0.4,-0.1 -0.1,-0.1 -0.2,-0.2 -0.4,-0.3 0,0 0.1,-0.1 0.1,-0.1 0.1,0 0.1,0.1 0.2,0.1 0,0.2 0.1,0.2 0.3,0.1 0.2,-0.1 0.1,-0.2 0.1,-0.3 -0.1,-0.2 -0.1,-0.3 0.2,-0.3 0.1,0 0.1,0 0.2,0 0.1,0 0.1,0 0.1,-0.1 0,-0.2 0.1,-0.3 0.1,-0.5 -0.2,-0.1 -0.2,-0.2 0,-0.4 0.2,-0.2 0.4,-0.3 0.6,-0.5 0.1,-0.1 0.1,-0.1 0.2,-0.2 -0.1,0 -0.1,-0.1 -0.2,-0.1 -0.2,0 -0.3,0 -0.5,0.1 -0.1,0.1 -0.1,0.1 -0.2,0.1 -0.1,0.1 -0.3,0.1 -0.4,-0.1 -0.1,-0.2 -0.2,-0.4 -0.3,-0.6 0,-0.1 -0.1,-0.2 -0.2,-0.2 -0.3,0 -0.7,0.1 -1,0.1 0.1,0 0.2,-0.1 0.4,-0.1 0,0 0,0 0,-0.1 -0.2,0 -0.5,-0.1 -0.7,-0.1 -0.2,0 -0.5,0 -0.7,0 5.1,-3.8 13.8,-3.6 18.8,2.7 0,0.3 0,0.5 0,0.7 0.1,0 0.3,-0.1 0.4,-0.1 0.1,0 0.1,0.1 0.2,0.2 0,0 0,0 0,0.1 -0.1,0 -0.2,0 -0.2,-0.1 -0.1,-0.2 -0.2,-0.1 -0.3,0 -0.2,0.1 -0.3,0.2 -0.5,0.4 0,0 -0.1,0 -0.1,0 0.1,-0.1 0.1,-0.1 0.2,-0.2 0.1,-0.1 0.2,-0.2 0.1,-0.4 0,-0.1 0,-0.2 0,-0.4 0,0 0,0 0,-0.1 0,-0.1 -0.5,-0.3 -0.6,-0.2 -0.2,0.1 -0.3,0.2 -0.5,0.3 -0.1,0.1 -0.1,0.2 0,0.2 0.1,0.1 0.2,0.1 0.3,0.2 0,0 0,0 0,0.1 -0.1,0 -0.1,0 -0.2,0 -0.2,0 -0.4,-0.1 -0.6,-0.2 -0.2,-0.1 -0.4,-0.1 -0.6,0.1 0,0 -0.1,0.1 -0.2,0.1 -0.3,-0.1 -0.5,-0.1 -0.7,0 0,0 0,0 0,0 -0.3,-0.2 -0.6,0.1 -1,0.1 -0.1,0 -0.2,0.1 -0.3,0.2 0,-0.1 0,-0.1 0,-0.1 0,-0.1 0,-0.1 0,-0.2 -0.1,0 -0.2,0 -0.3,0 0,0 -0.1,0.1 0,0.2 0,0.1 0,0.2 0,0.3 -0.1,-0.1 -0.2,-0.2 -0.3,-0.1 -0.1,0.1 -0.4,0 -0.4,0.3 -0.1,0 -0.1,0 -0.2,0 -0.3,0 -0.3,0 -0.5,0 0,-0.1 -0.1,-0.2 -0.1,-0.3 0.4,0.2 0.8,0.1 1.1,-0.1 0,0 0,-0.1 0,-0.1 -0.2,-0.1 -0.4,-0.1 -0.7,-0.2 -0.2,0 -0.4,0 -0.6,-0.1 -0.8,-0.3 -1.6,-0.4 -2.5,-0.1 0,0 -0.1,0 -0.1,0 -0.3,0.1 -0.5,0.2 -0.7,0.4 -0.3,0.3 -0.6,0.6 -1,0.6 0,0 0,0 -0.1,0 -0.4,0.2 -0.4,0.4 -0.2,0.7 0.1,0.2 0.5,0.3 0.6,0.1 0,0 0.1,-0.1 0.2,-0.2 0.1,0.2 0.1,0.4 0.1,0.5 0,0 0.1,0.1 0.1,0.1 0.2,0 0.4,-0.1 0.6,-0.1 0.1,0 0.1,-0.1 0.2,-0.1 0.1,-0.1 0.1,-0.2 0.2,-0.3 0.2,-0.2 0.2,-0.2 -0.1,-0.3 0,0 -0.1,0 -0.1,-0.1 0.1,-0.1 0.2,-0.2 0.3,-0.2 0.3,0 0.4,-0.2 0.4,-0.5 0.2,0 0.4,0 0.6,0 0,0 0,0 0,0.1 -0.2,0.1 -0.3,0.2 -0.5,0.3 -0.1,0.1 -0.2,0.1 -0.2,0.3 0.2,0.3 0.1,0.3 0.4,0.3 0.2,-0.1 0.5,-0.1 0.7,-0.1 0.1,0 0.1,0.1 0.2,0.1 0,0 0,0 0,0.1 -0.3,0 -0.6,0 -1,0.1 0.1,0.1 0.2,0.1 0.3,0.2 -0.2,0 -0.4,0 -0.5,0 -0.1,0.1 -0.1,0.3 -0.2,0.5 0,0 0,0 -0.1,0 -0.2,-0.1 -0.4,-0.1 -0.5,0 -0.1,0.1 -0.3,0.1 -0.4,0 -0.1,0 -0.2,0 -0.3,0 -0.2,0 -0.2,-0.1 -0.2,-0.2 0,-0.1 0.1,-0.2 -0.1,-0.2 -0.1,0 -0.3,0 -0.3,0.2 0,0.1 0,0.3 0,0.4 -0.2,-0.1 -0.4,0 -0.6,0.2 -0.1,0.1 -0.3,0.1 -0.4,0.1 0,0 0,0 0,0 l 0,0 c 0,0 0,0 0,0 0,0.2 -0.1,0.3 -0.3,0.3 -0.3,0 -0.5,0.1 -0.8,0.2 0,0 0,0 0,0.1 0.1,0 0.2,0.1 0.4,0.1 0.3,0.1 0.3,0.3 0.1,0.5 0,0.1 -0.2,0.1 -0.3,0.1 -0.2,0 -0.4,0 -0.6,0 -0.3,0 -0.4,0.1 -0.3,0.3 0,0.1 0.1,0.3 -0.1,0.4 -0.1,0.1 0.1,0.4 0.2,0.4 0.2,0 0.3,0.1 0.4,0.2 0.2,0 0.3,-0.1 0.4,-0.1 0.2,-0.1 0.4,-0.2 0.6,-0.2 -0.1,-0.3 0.1,-0.4 0.3,-0.5 0.1,0 0.2,-0.1 0.2,-0.2 0,-0.1 0.1,-0.2 0.2,-0.1 0.2,0.1 0.3,0 0.5,-0.1 0.2,-0.1 0.3,-0.1 0.4,0.1 0.1,0.1 0.2,0.2 0.3,0.3 0.3,0.1 0.6,0.2 0.7,0.6 0,0 0.1,0 0.1,0 0,-0.1 0,-0.2 0,-0.3 0,0 0.1,0 0.2,-0.1 -0.1,-0.1 -0.1,-0.1 -0.2,-0.1 -0.2,-0.2 -0.5,-0.3 -0.7,-0.5 0,0 0,-0.1 -0.1,-0.2 0.1,0 0.1,0 0.2,0 0.5,0.3 1,0.7 1.2,1.3 0,0.1 0.2,0.2 0.2,0.2 0.1,-0.1 0.3,-0.2 0.3,-0.3 0,0 -0.1,-0.2 -0.2,-0.3 0.1,-0.1 0.2,-0.1 0.4,-0.2 0,0.1 0.1,0.3 0.1,0.4 0,0.1 0.1,0.2 0.2,0.2 0.4,0.3 0.9,0.2 1.4,0.1 0.1,0.3 -0.1,0.7 -0.3,0.8 -0.1,0 -0.2,0.1 -0.2,0 -0.2,-0.2 -0.4,0 -0.7,0 0,0 0,-0.1 0.1,-0.2 -0.2,0 -0.3,0 -0.4,0 -0.1,0 -0.3,0 -0.4,-0.1 -0.2,-0.1 -0.4,-0.1 -0.6,0.1 -0.2,0.2 -0.4,0.2 -0.6,0.1 -0.3,-0.1 -0.6,-0.3 -0.9,-0.4 -0.1,0 -0.1,-0.1 -0.2,-0.1 0.1,0 0.1,-0.1 0.2,-0.1 0,-0.3 -0.2,-0.5 -0.5,-0.4 -0.2,0 -0.3,0.1 -0.5,0 -0.3,0 -0.6,0.1 -0.9,0.2 -0.2,0.1 -0.4,0.2 -0.7,0.1 0,0 -0.1,0 -0.1,0 -0.3,0.1 -0.7,0.5 -0.7,0.8 0,0.2 -0.1,0.2 -0.2,0.3 -0.3,0.1 -0.5,0.3 -0.6,0.7 0,0 0,0 0,0.1 -0.2,0.2 -0.2,0.5 -0.1,0.8 0.1,0.2 0,0.3 -0.2,0.7 0,0.2 0,0.3 0,0.4 0,0.1 0.1,0.2 0.1,0.2 0.2,0.1 0.4,0.3 0.5,0.5 0.2,0.3 0.5,0.5 0.8,0.7 0,0 0.1,0 0.2,0 0.1,0 0.2,-0.1 0.3,-0.1 0.1,0 0.2,0 0.3,0 0.3,0 0.5,0 0.7,-0.2 0.1,-0.1 0.2,-0.1 0.3,-0.1 0.2,0 0.3,0 0.3,0.2 0.2,0.3 0.2,0.3 0.5,0.1 0,0 0,0 0.1,0 0.1,0 0.1,0.1 0.2,0.1 0.1,0.1 0.1,0.1 0,0.2 -0.1,0.2 -0.1,0.5 -0.2,0.7 0,0 0,0.1 0.1,0.1 0.2,0.2 0.4,0.5 0.6,0.7 0,0 0,0.1 0,0.2 0,0.2 0.1,0.3 0.1,0.5 0,0.1 0.1,0.2 0,0.2 -0.3,0.3 -0.4,0.7 -0.2,1 0.1,0.2 0.2,0.3 0.3,0.5 0.1,0.2 0.2,0.4 0.2,0.6 0,0.2 0.1,0.4 0.2,0.6 0.2,0.2 0.2,0.4 0.3,0.7 0.1,0.3 0.2,0.4 0.5,0.3 0.1,0 0.3,-0.1 0.4,-0.1 0.3,0 0.6,-0.1 0.8,-0.3 0.2,-0.2 0.4,-0.4 0.6,-0.7 0,-0.1 0.1,-0.2 0.1,-0.2 0,-0.2 0.1,-0.2 0.2,-0.3 0.3,-0.1 0.3,-0.2 0.2,-0.4 -0.1,-0.4 0,-0.6 0.4,-0.7 0.2,-0.1 0.4,-0.2 0.4,-0.5 0,-0.1 0,-0.2 0,-0.3 0,-0.1 0,-0.2 0,-0.3 0,-0.1 0,-0.1 0,-0.2 -0.2,-0.2 -0.2,-0.4 -0.2,-0.7 0,-0.1 0,-0.2 0.1,-0.3 0.2,-0.2 0.4,-0.5 0.6,-0.7 0.1,-0.1 0.2,-0.2 0.4,-0.3 0.1,-0.1 0.2,-0.2 0.4,-0.4 0.1,-0.1 0.2,-0.2 0.2,-0.3 0.1,-0.2 0.2,-0.4 0.3,-0.7 0.1,-0.2 0,-0.3 -0.2,-0.2 -0.2,0.1 -0.4,0.1 -0.6,0.2 -0.1,0 -0.2,0.1 -0.3,0.1 -0.1,0 -0.2,0 -0.2,-0.2 0,-0.2 -0.2,-0.3 -0.3,-0.5 -0.1,-0.1 -0.2,-0.2 -0.2,-0.3 -0.2,-0.5 -0.5,-0.9 -0.7,-1.4 -0.1,-0.2 -0.2,-0.3 -0.2,-0.5 0.2,-0.1 0.3,-0.1 0.4,0.1 0.1,0.3 0.4,0.6 0.5,0.9 0,0.1 0.1,0.1 0.1,0.2 0.3,0.2 0.4,0.5 0.5,0.8 0.1,0.4 0.2,0.5 0.6,0.4 0.5,-0.2 0.9,-0.3 1.4,-0.6 0.2,-0.1 0.4,-0.4 0.6,-0.6 0,0 0.1,-0.1 0.1,-0.2 0.2,-0.2 0.2,-0.3 -0.1,-0.4 -0.1,-0.1 -0.3,-0.2 -0.5,-0.3 -0.1,0.1 -0.3,0.2 -0.5,0.3 -0.2,-0.3 -0.4,-0.5 -0.6,-0.7 -0.1,-0.2 -0.1,-0.3 0,-0.3 0.1,-0.1 0.1,-0.1 0.2,0 0.1,0.3 0.4,0.4 0.7,0.6 0.1,0 0.2,0 0.2,0 0.1,-0.1 0.2,-0.1 0.3,0 0.1,0.2 0.3,0.3 0.5,0.3 0.2,0 0.4,0.1 0.6,0 0.2,-0.1 0.3,0 0.5,0.1 0.2,0.1 0.3,0.2 0.3,0.4 0,0.1 0.2,0.2 0.3,0.1 0,0 0.1,-0.1 0.1,-0.1 0,0.1 0,0.1 0,0.1 -0.1,0.6 0.2,1 0.5,1.5 0.1,0.2 0.2,0.4 0.2,0.6 0,0 0.1,0.1 0.1,0.1 0,0 0.1,-0.1 0.1,-0.1 0.2,-0.3 0.4,-0.7 0.4,-1.1 0,-0.1 0.1,-0.2 0.2,-0.3 0.2,-0.2 0.5,-0.4 0.7,-0.6 0.1,-0.1 0.2,-0.2 0.4,-0.2 0.2,0 0.3,-0.1 0.5,-0.1 0.2,0.3 0.4,0.5 0.4,0.9 -0.1,6.5 -4.8,12.2 -11.3,13.4 -4.7,0.9 -8.9,-0.4 -12.4,-3.6 -0.3,-0.3 -0.5,-0.5 -0.8,-0.8 0,0 0,0 0,-0.1 0,0 0,-0.1 0.1,-0.1 0.2,-0.2 0.2,-0.3 0,-0.5 -0.1,-0.1 -0.1,-0.2 -0.1,-0.3 0.1,0.2 0.1,0.3 0.3,0.3 0.2,0 0.3,-0.1 0.4,-0.2 0.1,-0.1 0.2,-0.3 0.3,-0.4 0,-0.1 0.1,-0.1 0.2,-0.1 0,0 0.1,0 0.1,-0.1 0.1,-0.1 0.1,-0.1 0.1,-0.2 0.1,-0.1 0.2,-0.2 0.1,-0.4 0,-0.1 0,-0.2 0.1,-0.3 0.3,-0.1 0.5,-0.3 0.8,-0.3 0.1,0 0.2,-0.1 0.2,-0.2 0.1,-0.1 0.2,-0.2 0.2,-0.3 0.1,-0.3 0.1,-0.5 0.1,-0.8 0,-0.2 0,-0.3 0.1,-0.4 0.2,-0.2 0.4,-0.4 0.5,-0.7 0.1,-0.3 0,-0.5 -0.3,-0.6 -0.1,-0.1 -0.3,-0.2 -0.4,-0.2 -0.1,-0.1 -0.3,-0.1 -0.4,-0.1 -0.1,0 -0.2,0 -0.3,-0.1 -0.1,-0.1 -0.3,-0.2 -0.4,-0.2 -0.3,-0.1 -0.3,-0.1 -0.5,0.2 0,0 -0.1,0.1 -0.2,0.1 0,0 0,0 0,-0.1 0.1,0 0.1,-0.1 0.2,-0.1 0,-0.1 0,-0.1 0,-0.2 -0.1,0 -0.2,0 -0.2,0 -0.1,0.1 -0.2,0.1 -0.4,0.1 0.2,-0.1 0.3,-0.1 0.4,-0.2 0.1,0 0.1,-0.1 0.1,-0.2 0,-0.1 -0.1,-0.1 -0.1,-0.2 -0.4,0.1 -0.4,0.1 -0.4,0.1 z"
           id="path9"
           style="fill:#ffffff;fill-opacity:1" />
        <path
           inkscape:connector-curvature="0"
           d="m 305.9,565.5 c 0,0.1 0.1,0.1 0.1,0.2 0,0 -0.1,0.1 -0.1,0.1 -0.3,0 -0.5,0 -0.7,-0.1 -0.2,-0.1 -0.4,-0.1 -0.7,0 -0.1,0 -0.1,0 -0.2,0 -0.1,0 -0.3,0 -0.4,0 0,-0.1 0,-0.2 0,-0.3 0,-0.1 0,-0.1 0.1,-0.2 0.1,-0.1 0.2,-0.2 0.3,-0.4 0.1,-0.2 0.3,-0.2 0.4,0 0.2,0.3 0.3,0.3 0.5,0 0.1,-0.1 0.2,-0.1 0.3,-0.2 0,0 0,0 0,0.1 0,0 -0.1,0 -0.1,0.1 0,0 -0.1,0 -0.1,0.1 0.2,0.1 0.4,0.3 0.6,0.4 -0.1,0.1 0,0.1 0,0.2 z"
           id="path11"
           style="fill:#ffffff;fill-opacity:1" />
        <path
           inkscape:connector-curvature="0"
           d="m 306.7,565.2 c -0.1,-0.1 0.1,-0.4 0.3,-0.3 0.2,0 0.4,0 0.5,-0.1 0.1,0 0.2,0 0.4,0 0.1,0 0.1,0.1 0.2,0.2 0,0 0,0 0,0.1 -0.1,0 -0.2,0 -0.3,0 -0.2,-0.1 -0.3,0 -0.3,0.2 0.2,0.2 0.3,0.3 0.5,0.4 0,0 -0.1,0.1 -0.1,0.1 0.1,0.2 0.1,0.3 0.2,0.5 0,0 0,0.1 -0.1,0.2 -0.3,0.1 -0.5,0 -0.8,-0.1 -0.1,0 -0.1,-0.1 -0.1,-0.2 0,0 0.1,-0.1 0.1,-0.1 0.1,-0.1 0.2,-0.1 0.3,-0.2 -0.1,-0.1 -0.2,-0.1 -0.2,-0.1 -0.3,-0.2 -0.4,-0.4 -0.6,-0.6 z"
           id="path13"
           style="fill:#ffffff;fill-opacity:1" />
      </g>
    </g>
    <g
       transform="translate(83,-52.752934)"
       id="g15"
       inkscape:export-filename="/home/risca/logo.png"
       inkscape:export-xdpi="90"
       inkscape:export-ydpi="90"
       style="fill:#ffffff;fill-opacity:1">
      <path
         inkscape:connector-curvature="0"
         d="M 102.6,631.5 H 87.4 c -1.7,3.8 -2.5,6.4 -2.5,7.9 0,1.1 0.4,1.8 1.2,2 0.8,0.3 2,0.4 3.6,0.4 v 2.1 H 75 v -2.1 c 0.9,-0.1 1.6,-0.2 2.2,-0.4 0.6,-0.2 1.2,-0.4 1.7,-0.8 0.5,-0.3 0.9,-0.7 1.3,-1.3 0.4,-0.5 0.7,-1.2 1,-1.9 L 95.3,602 h 4 l 12.8,31.4 c 0.8,1.8 1.4,3.3 1.9,4.3 0.5,1 1.1,1.8 1.7,2.4 0.6,0.6 1.3,0.9 2,1.2 0.8,0.2 1.8,0.4 3,0.5 v 2.2 h -20.3 v -2.2 c 1.7,-0.1 3,-0.3 3.7,-0.5 0.8,-0.3 1.1,-0.9 1.1,-1.7 0,-0.5 -0.1,-1.1 -0.4,-1.9 -0.3,-0.8 -0.6,-1.8 -1,-2.9 l -1.2,-3.3 z m -13.9,-3.2 h 12.8 L 95.3,612 H 95 l -6.3,16.3 z"
         id="path17"
         style="fill:#ffffff;fill-opacity:1" />
      <path
         inkscape:connector-curvature="0"
         d="m 133,635.1 c 0,1.5 0,2.7 0.1,3.5 0.1,0.9 0.3,1.5 0.6,2 0.3,0.4 0.8,0.7 1.4,0.9 0.6,0.1 1.4,0.3 2.5,0.3 v 2.1 h -17 v -2.1 c 1.1,-0.1 1.9,-0.2 2.6,-0.3 0.6,-0.1 1.1,-0.4 1.4,-0.9 0.3,-0.4 0.5,-1 0.6,-1.9 0.1,-0.8 0.2,-1.9 0.2,-3.2 v -6.7 c 0,-2 0,-3.7 -0.1,-5.1 -0.1,-1.4 -0.2,-2.3 -0.3,-2.8 -0.1,-0.5 -0.2,-0.8 -0.4,-1.1 -0.2,-0.3 -0.4,-0.5 -0.8,-0.6 -0.3,-0.2 -0.8,-0.3 -1.3,-0.3 -0.5,-0.1 -1.2,-0.1 -2.1,-0.1 V 617 l 10.4,-2 0.6,4.7 h 0.3 c 1.5,-1.7 3,-2.9 4.5,-3.6 1.5,-0.7 3.3,-1.1 5.3,-1.1 2.4,0 4.3,0.4 5.9,1.2 1.5,0.8 2.7,2 3.5,3.5 h 0.2 c 1.3,-1.5 2.8,-2.7 4.6,-3.5 1.8,-0.8 3.7,-1.3 5.7,-1.3 2.1,0 4,0.3 5.6,0.8 1.6,0.5 2.8,1.3 3.7,2.3 0.7,0.8 1.2,1.9 1.6,3.2 0.3,1.3 0.5,3.2 0.5,5.5 v 8.3 c 0,1.5 0,2.6 0.1,3.5 0.1,0.9 0.3,1.5 0.6,2 0.3,0.5 0.8,0.8 1.4,0.9 0.6,0.1 1.4,0.3 2.5,0.3 v 2.1 h -17 v -2.1 c 1.1,0 1.9,-0.1 2.5,-0.3 0.6,-0.2 1.1,-0.5 1.4,-0.9 0.3,-0.4 0.6,-1.1 0.6,-1.9 0.1,-0.8 0.1,-1.9 0.1,-3.2 v -7 c 0,-1.9 -0.1,-3.4 -0.3,-4.7 -0.2,-1.3 -0.6,-2.3 -1,-3.1 -0.5,-0.8 -1.1,-1.4 -1.9,-1.7 -0.8,-0.3 -1.7,-0.5 -2.8,-0.5 -1.3,0 -2.3,0.3 -3.1,0.9 -0.8,0.6 -1.5,1.4 -2,2.4 -0.9,1.7 -1.4,3.8 -1.4,6.3 v 7.1 c 0,1.5 0,2.6 0.1,3.5 0.1,0.9 0.3,1.5 0.6,2 0.3,0.5 0.8,0.8 1.4,0.9 0.6,0.1 1.5,0.3 2.6,0.3 v 2.1 h -17 v -2.1 c 1.1,-0.1 1.9,-0.2 2.5,-0.3 0.6,-0.1 1.1,-0.4 1.4,-0.9 0.3,-0.4 0.6,-1 0.6,-1.9 0.1,-0.8 0.1,-1.9 0.1,-3.2 v -7 c 0,-1.9 -0.1,-3.4 -0.3,-4.7 -0.2,-1.3 -0.6,-2.3 -1,-3.1 -0.5,-0.8 -1.1,-1.4 -1.9,-1.7 -0.8,-0.3 -1.8,-0.5 -3,-0.5 -1.2,0 -2.2,0.3 -2.9,0.9 -0.7,0.6 -1.4,1.3 -1.9,2.3 -0.5,0.9 -0.8,1.8 -1.1,3 -0.3,1.1 -0.4,2.3 -0.4,3.4 v 7 z"
         id="path19"
         style="fill:#ffffff;fill-opacity:1" />
      <path
         inkscape:connector-curvature="0"
         d="m 196.1,615 c 2.1,0 4.2,0.4 6.1,1.1 1.9,0.7 3.6,1.7 5,3 1.4,1.3 2.6,2.8 3.4,4.6 0.8,1.8 1.3,3.7 1.3,5.8 0,2.2 -0.4,4.2 -1.3,6 -0.8,1.8 -2,3.4 -3.4,4.7 -1.4,1.3 -3.1,2.4 -5,3.1 -1.9,0.8 -3.9,1.1 -6.1,1.1 -2.1,0 -4.1,-0.4 -6,-1.1 -1.9,-0.7 -3.6,-1.8 -5,-3.1 -1.4,-1.3 -2.6,-2.9 -3.4,-4.8 -0.8,-1.8 -1.2,-3.9 -1.2,-6 0,-2.1 0.4,-4.1 1.2,-5.9 0.8,-1.8 1.9,-3.3 3.4,-4.6 1.4,-1.3 3.1,-2.3 5,-3 1.9,-0.5 3.9,-0.9 6,-0.9 z m 0,3.1 c -1.1,0 -2.1,0.3 -3,0.8 -0.9,0.6 -1.7,1.3 -2.3,2.3 -0.6,1 -1.1,2.2 -1.4,3.6 -0.3,1.4 -0.5,3 -0.5,4.7 0,1.8 0.2,3.4 0.5,4.8 0.3,1.4 0.8,2.6 1.4,3.7 0.6,1 1.4,1.8 2.3,2.3 0.9,0.6 1.9,0.8 3,0.8 1.1,0 2.1,-0.3 3,-0.8 0.9,-0.6 1.7,-1.3 2.3,-2.4 0.6,-1 1.1,-2.2 1.5,-3.7 0.4,-1.4 0.5,-3 0.5,-4.8 0,-1.7 -0.2,-3.3 -0.5,-4.7 -0.4,-1.4 -0.9,-2.6 -1.5,-3.6 -0.6,-1 -1.4,-1.8 -2.3,-2.4 -0.8,-0.3 -1.9,-0.6 -3,-0.6 z"
         id="path21"
         style="fill:#ffffff;fill-opacity:1" />
      <path
         inkscape:connector-curvature="0"
         d="m 227.2,635.2 c 0,1.4 0.1,2.6 0.2,3.4 0.1,0.9 0.3,1.5 0.6,2 0.3,0.5 0.8,0.8 1.4,0.9 0.6,0.2 1.4,0.3 2.5,0.3 v 2.1 H 215 v -2.1 c 1,0 1.8,-0.2 2.4,-0.3 0.6,-0.1 1.1,-0.5 1.4,-1 0.3,-0.4 0.6,-1.1 0.7,-1.9 0.1,-0.8 0.2,-1.8 0.2,-3.1 v -22.2 c 0,-2.1 0,-3.8 -0.1,-5.1 -0.1,-1.3 -0.2,-2.3 -0.3,-2.8 -0.2,-0.9 -0.6,-1.5 -1.2,-1.8 -0.6,-0.3 -1.8,-0.4 -3.4,-0.4 v -1.8 l 12.5,-2 v 35.8 z"
         id="path23"
         style="fill:#ffffff;fill-opacity:1" />
      <path
         inkscape:connector-curvature="0"
         d="m 251.5,625.8 v -2.3 c 0,-2.1 -0.4,-3.6 -1.1,-4.5 -0.7,-0.9 -1.9,-1.4 -3.4,-1.4 -1,0 -1.8,0.3 -2.4,0.8 -0.5,0.6 -1,1.5 -1.5,2.8 -0.3,0.9 -0.8,1.6 -1.4,2.1 -0.6,0.5 -1.4,0.8 -2.4,0.8 -1,0 -1.8,-0.3 -2.3,-0.9 -0.5,-0.6 -0.8,-1.5 -0.8,-2.6 0,-1.7 0.9,-3.1 2.8,-4.1 1.9,-1 4.7,-1.5 8.5,-1.5 4,0 6.9,0.7 8.6,2.2 1.7,1.4 2.6,3.9 2.6,7.3 v 11.8 c 0,3 0.6,4.6 1.8,4.6 0.7,0 1.3,-0.2 1.9,-0.7 l 0.8,1.6 c -0.5,0.9 -1.3,1.6 -2.3,2.1 -1.1,0.5 -2.2,0.8 -3.6,0.8 -1.6,0 -2.9,-0.5 -3.8,-1.5 -0.9,-1 -1.3,-2.4 -1.3,-4.2 H 252 c -1,1.9 -2.4,3.3 -4,4.2 -1.6,1 -3.5,1.4 -5.6,1.4 -2.3,0 -4.1,-0.6 -5.4,-1.9 -1.4,-1.3 -2,-2.9 -2,-5 0,-1.6 0.7,-3.1 2.1,-4.4 1.4,-1.4 3.7,-2.7 7,-4.1 l 7.4,-3.4 z m 0,2.9 c -3,1.4 -5.3,2.6 -6.8,3.8 -1.5,1.2 -2.3,2.4 -2.3,3.6 0,1 0.3,1.9 0.9,2.5 0.6,0.6 1.3,0.9 2.1,0.9 0.8,0 1.7,-0.2 2.4,-0.5 0.8,-0.3 1.4,-0.7 1.9,-1.2 0.5,-0.5 1,-1.1 1.3,-1.8 0.3,-0.7 0.5,-1.4 0.5,-2.2 v -5.1 z"
         id="path25"
         style="fill:#ffffff;fill-opacity:1" />
      <path
         inkscape:connector-curvature="0"
         d="m 277.7,635.1 c 0,1.5 0,2.7 0.1,3.5 0.1,0.9 0.3,1.5 0.6,2 0.3,0.4 0.8,0.7 1.4,0.9 0.6,0.1 1.4,0.3 2.5,0.3 v 2.1 h -17 v -2.1 c 1.1,-0.1 1.9,-0.2 2.6,-0.3 0.6,-0.1 1.1,-0.4 1.4,-0.9 0.3,-0.4 0.5,-1 0.6,-1.9 0.1,-0.8 0.2,-1.9 0.2,-3.2 v -6.7 c 0,-2 0,-3.7 -0.1,-5.1 -0.1,-1.4 -0.2,-2.3 -0.3,-2.8 -0.1,-0.5 -0.2,-0.8 -0.4,-1.1 -0.2,-0.3 -0.4,-0.5 -0.8,-0.6 -0.3,-0.2 -0.8,-0.3 -1.3,-0.3 -0.5,-0.1 -1.2,-0.1 -2.1,-0.1 V 617 l 10.4,-2 0.6,4.7 h 0.3 c 1.5,-1.7 3,-2.9 4.5,-3.6 1.5,-0.7 3.3,-1.1 5.3,-1.1 2.4,0 4.3,0.4 5.9,1.2 1.5,0.8 2.7,2 3.5,3.5 h 0.2 c 1.3,-1.5 2.8,-2.7 4.6,-3.5 1.8,-0.8 3.7,-1.3 5.7,-1.3 2.1,0 4,0.3 5.6,0.8 1.6,0.5 2.8,1.3 3.7,2.3 0.7,0.8 1.2,1.9 1.6,3.2 0.3,1.3 0.5,3.2 0.5,5.5 v 8.3 c 0,1.5 0,2.6 0.1,3.5 0.1,0.9 0.3,1.5 0.6,2 0.3,0.5 0.8,0.8 1.4,0.9 0.6,0.1 1.4,0.3 2.5,0.3 v 2.1 h -17 v -2.1 c 1.1,0 1.9,-0.1 2.5,-0.3 0.6,-0.2 1.1,-0.5 1.4,-0.9 0.3,-0.4 0.6,-1.1 0.6,-1.9 0.1,-0.8 0.1,-1.9 0.1,-3.2 v -7 c 0,-1.9 -0.1,-3.4 -0.3,-4.7 -0.2,-1.3 -0.6,-2.3 -1,-3.1 -0.5,-0.8 -1.1,-1.4 -1.9,-1.7 -0.8,-0.3 -1.7,-0.5 -2.8,-0.5 -1.3,0 -2.3,0.3 -3.1,0.9 -0.8,0.6 -1.5,1.4 -2,2.4 -0.9,1.7 -1.4,3.8 -1.4,6.3 v 7.1 c 0,1.5 0,2.6 0.1,3.5 0.1,0.9 0.3,1.5 0.6,2 0.3,0.5 0.8,0.8 1.4,0.9 0.6,0.1 1.5,0.3 2.6,0.3 v 2.1 h -17 v -2.1 c 1.1,-0.1 1.9,-0.2 2.5,-0.3 0.6,-0.1 1.1,-0.4 1.4,-0.9 0.3,-0.4 0.6,-1 0.6,-1.9 0.1,-0.8 0.1,-1.9 0.1,-3.2 v -7 c 0,-1.9 -0.1,-3.4 -0.3,-4.7 -0.2,-1.3 -0.6,-2.3 -1,-3.1 -0.5,-0.8 -1.1,-1.4 -1.9,-1.7 -0.8,-0.3 -1.8,-0.5 -3,-0.5 -1.2,0 -2.2,0.3 -2.9,0.9 -0.8,0.6 -1.4,1.3 -1.9,2.3 -0.5,0.9 -0.8,1.8 -1.1,3 -0.3,1.1 -0.4,2.3 -0.4,3.4 v 7 z"
         id="path27"
         style="fill:#ffffff;fill-opacity:1" />
      <path
         inkscape:connector-curvature="0"
         d="m 337,635.2 c 0,1.4 0.1,2.6 0.2,3.4 0.1,0.9 0.3,1.5 0.6,2 0.3,0.5 0.8,0.8 1.4,0.9 0.6,0.2 1.4,0.3 2.5,0.3 v 2.1 h -16.9 v -2.1 c 1,0 1.8,-0.2 2.4,-0.3 0.6,-0.2 1.1,-0.5 1.4,-1 0.3,-0.4 0.6,-1.1 0.7,-1.9 0.1,-0.8 0.2,-1.8 0.2,-3.1 V 629 c 0,-2.1 0,-3.8 -0.1,-5.1 -0.1,-1.3 -0.2,-2.3 -0.3,-2.8 -0.2,-0.9 -0.6,-1.5 -1.2,-1.8 -0.6,-0.3 -1.8,-0.4 -3.4,-0.4 V 617 l 12.5,-2 v 20.2 z m -7.9,-31.6 c 0,-1.2 0.4,-2.2 1.2,-3 0.8,-0.8 1.8,-1.2 2.9,-1.2 1.2,0 2.2,0.4 3,1.2 0.8,0.8 1.2,1.8 1.2,3 0,1.1 -0.4,2.1 -1.2,2.9 -0.8,0.8 -1.8,1.2 -3,1.2 -1.1,0 -2.1,-0.4 -2.9,-1.2 -0.8,-0.8 -1.2,-1.7 -1.2,-2.9 z"
         id="path29"
         style="fill:#ffffff;fill-opacity:1" />
      <path
         inkscape:connector-curvature="0"
         d="m 361.1,625.8 v -2.3 c 0,-2.1 -0.4,-3.6 -1.1,-4.5 -0.7,-0.9 -1.9,-1.4 -3.4,-1.4 -1,0 -1.8,0.3 -2.4,0.8 -0.5,0.6 -1,1.5 -1.5,2.8 -0.3,0.9 -0.8,1.6 -1.4,2.1 -0.6,0.5 -1.4,0.8 -2.4,0.8 -1,0 -1.8,-0.3 -2.3,-0.9 -0.5,-0.6 -0.8,-1.5 -0.8,-2.6 0,-1.7 0.9,-3.1 2.8,-4.1 1.9,-1 4.7,-1.5 8.5,-1.5 4,0 6.9,0.7 8.6,2.2 1.7,1.4 2.6,3.9 2.6,7.3 v 11.8 c 0,3 0.6,4.6 1.8,4.6 0.7,0 1.3,-0.2 1.9,-0.7 l 0.8,1.6 c -0.5,0.9 -1.3,1.6 -2.3,2.1 -1.1,0.5 -2.2,0.8 -3.6,0.8 -1.6,0 -2.9,-0.5 -3.8,-1.5 -0.9,-1 -1.3,-2.4 -1.3,-4.2 h -0.3 c -1,1.9 -2.4,3.3 -4,4.2 -1.6,1 -3.5,1.4 -5.6,1.4 -2.3,0 -4.1,-0.6 -5.4,-1.9 -1.4,-1.3 -2,-2.9 -2,-5 0,-1.6 0.7,-3.1 2.1,-4.4 1.4,-1.4 3.7,-2.7 7,-4.1 l 7.5,-3.4 z m 0,2.9 c -3,1.4 -5.3,2.6 -6.8,3.8 -1.5,1.2 -2.3,2.4 -2.3,3.6 0,1 0.3,1.9 0.9,2.5 0.6,0.6 1.3,0.9 2.1,0.9 0.9,0 1.7,-0.2 2.4,-0.5 0.8,-0.3 1.4,-0.7 1.9,-1.2 0.5,-0.5 1,-1.1 1.3,-1.8 0.3,-0.7 0.5,-1.4 0.5,-2.2 v -5.1 z"
         id="path31"
         style="fill:#ffffff;fill-opacity:1" />
      <path
         inkscape:connector-curvature="0"
         d="m 374.8,618.5 v -2.4 c 2.1,-0.6 3.9,-1.5 5.4,-2.8 1.5,-1.3 2.5,-2.7 3.2,-4.3 h 2.7 v 6.5 h 6.2 v 3 h -6.2 V 635 c 0,2.2 0.2,3.8 0.7,4.7 0.5,0.9 1.3,1.4 2.4,1.4 1.4,0 2.5,-0.6 3.2,-1.9 l 1.1,1.6 c -1,2.5 -3.4,3.8 -7.1,3.8 -2.5,0 -4.4,-0.6 -5.8,-1.7 -1.4,-1.1 -2.1,-2.8 -2.1,-4.8 v -19.5 h -3.7 z"
         id="path33"
         style="fill:#ffffff;fill-opacity:1" />
      <path
         inkscape:connector-curvature="0"
         d="m 422.9,639 c -3.3,3.7 -7.3,5.5 -12.2,5.5 -2.2,0 -4.2,-0.3 -6,-1 -1.8,-0.7 -3.4,-1.7 -4.6,-3 -1.3,-1.3 -2.3,-2.8 -3,-4.5 -0.7,-1.8 -1.1,-3.7 -1.1,-5.9 0,-2.2 0.4,-4.2 1.1,-6.1 0.8,-1.8 1.8,-3.4 3.2,-4.8 1.4,-1.3 3,-2.4 4.9,-3.1 1.9,-0.8 3.9,-1.1 6.2,-1.1 3.8,0 6.7,1 8.9,3.1 2.1,2 3.2,4.9 3.2,8.6 0,0.6 -0.1,0.9 -0.3,1 -0.2,0.1 -0.7,0.2 -1.5,0.2 h -17.3 c -0.1,0.3 -0.2,0.9 -0.2,1.8 0,3.5 0.8,6.3 2.3,8.3 1.5,2 3.6,3.1 6.2,3.1 1.5,0 3,-0.3 4.5,-1 1.5,-0.7 2.9,-1.6 4.3,-2.9 l 1.4,1.8 z m -10.4,-14.1 c 1.4,0 2.4,-0.1 2.8,-0.2 0.4,-0.1 0.6,-0.5 0.6,-1.2 0,-1.6 -0.4,-2.9 -1.3,-3.9 -0.9,-1 -2,-1.5 -3.4,-1.5 -1.5,0 -2.9,0.6 -4.1,1.9 -1.2,1.3 -2,2.9 -2.3,4.9 h 7.7 z"
         id="path35"
         style="fill:#ffffff;fill-opacity:1" />
      <path
         inkscape:connector-curvature="0"
         d="m 439.2,635.7 c 0,1.4 0.1,2.5 0.2,3.3 0.1,0.8 0.4,1.4 0.8,1.9 0.4,0.4 1,0.7 1.7,0.8 0.8,0.1 1.8,0.2 3,0.2 V 644 H 427 v -2.1 c 1.1,-0.1 1.9,-0.2 2.6,-0.3 0.6,-0.1 1.1,-0.4 1.4,-0.9 0.3,-0.4 0.5,-1 0.6,-1.9 0.1,-0.8 0.1,-1.9 0.1,-3.2 V 629 c 0,-2.2 -0.1,-4 -0.2,-5.3 -0.1,-1.3 -0.3,-2.3 -0.7,-3.1 -0.4,-0.7 -0.9,-1.2 -1.5,-1.4 -0.7,-0.2 -1.5,-0.3 -2.6,-0.3 V 617 l 10.7,-2 0.9,6.2 h 0.2 c 1,-1.9 2.2,-3.4 3.8,-4.5 1.6,-1.1 3.2,-1.7 5,-1.7 1.4,0 2.5,0.3 3.3,1 0.9,0.7 1.3,1.5 1.3,2.6 0,1.1 -0.3,2.1 -1,2.9 -0.7,0.8 -1.6,1.2 -2.7,1.2 -0.5,0 -1,-0.1 -1.4,-0.3 -0.4,-0.2 -0.8,-0.5 -1.2,-0.7 -0.3,-0.3 -0.7,-0.5 -1,-0.8 -0.3,-0.2 -0.7,-0.3 -1,-0.3 -0.7,0 -1.3,0.4 -1.9,1.3 -0.6,0.9 -1.1,2.1 -1.5,3.6 -0.3,1.1 -0.5,2.3 -0.7,3.6 -0.2,1.3 -0.3,2.7 -0.3,4 v 2.6 z"
         id="path37"
         style="fill:#ffffff;fill-opacity:1" />
      <path
         inkscape:connector-curvature="0"
         d="m 465.9,635.7 c 0,1.4 0.1,2.5 0.2,3.3 0.1,0.8 0.4,1.4 0.8,1.9 0.4,0.4 1,0.7 1.7,0.8 0.8,0.1 1.8,0.2 3,0.2 v 2.1 h -17.9 v -2.1 c 1.1,-0.1 1.9,-0.2 2.6,-0.3 0.6,-0.1 1.1,-0.4 1.4,-0.9 0.3,-0.4 0.5,-1 0.6,-1.9 0.1,-0.8 0.1,-1.9 0.1,-3.2 V 629 c 0,-2.2 -0.1,-4 -0.2,-5.3 -0.1,-1.3 -0.3,-2.3 -0.7,-3.1 -0.4,-0.7 -0.9,-1.2 -1.5,-1.4 -0.7,-0.2 -1.5,-0.3 -2.6,-0.3 V 617 l 10.7,-2 0.9,6.2 h 0.2 c 1,-1.9 2.2,-3.4 3.8,-4.5 1.6,-1.1 3.2,-1.7 5,-1.7 1.4,0 2.5,0.3 3.3,1 0.9,0.7 1.3,1.5 1.3,2.6 0,1.1 -0.3,2.1 -1,2.9 -0.7,0.8 -1.6,1.2 -2.7,1.2 -0.5,0 -1,-0.1 -1.4,-0.3 -0.4,-0.2 -0.8,-0.5 -1.2,-0.7 -0.3,-0.3 -0.7,-0.5 -1,-0.8 -0.3,-0.2 -0.7,-0.3 -1,-0.3 -0.7,0 -1.3,0.4 -1.9,1.3 -0.6,0.9 -1.1,2.1 -1.5,3.6 -0.3,1.1 -0.5,2.3 -0.7,3.6 -0.2,1.3 -0.3,2.7 -0.3,4 v 2.6 z"
         id="path39"
         style="fill:#ffffff;fill-opacity:1" />
      <path
         inkscape:connector-curvature="0"
         d="m 497.3,625.8 v -2.3 c 0,-2.1 -0.4,-3.6 -1.1,-4.5 -0.7,-0.9 -1.9,-1.4 -3.4,-1.4 -1,0 -1.8,0.3 -2.4,0.8 -0.5,0.6 -1,1.5 -1.5,2.8 -0.3,0.9 -0.8,1.6 -1.4,2.1 -0.6,0.5 -1.4,0.8 -2.4,0.8 -1,0 -1.8,-0.3 -2.3,-0.9 -0.5,-0.6 -0.8,-1.5 -0.8,-2.6 0,-1.7 0.9,-3.1 2.8,-4.1 1.9,-1 4.7,-1.5 8.5,-1.5 4,0 6.9,0.7 8.6,2.2 1.7,1.4 2.6,3.9 2.6,7.3 v 11.8 c 0,3 0.6,4.6 1.8,4.6 0.7,0 1.3,-0.2 1.9,-0.7 l 0.8,1.6 c -0.5,0.9 -1.3,1.6 -2.3,2.1 -1.1,0.5 -2.2,0.8 -3.6,0.8 -1.6,0 -2.9,-0.5 -3.8,-1.5 -0.9,-1 -1.3,-2.4 -1.3,-4.2 h -0.3 c -1,1.9 -2.4,3.3 -4,4.2 -1.6,1 -3.5,1.4 -5.6,1.4 -2.3,0 -4.1,-0.6 -5.4,-1.9 -1.4,-1.3 -2,-2.9 -2,-5 0,-1.6 0.7,-3.1 2.1,-4.4 1.4,-1.4 3.7,-2.7 7,-4.1 l 7.5,-3.4 z m 0,2.9 c -3,1.4 -5.3,2.6 -6.8,3.8 -1.5,1.2 -2.3,2.4 -2.3,3.6 0,1 0.3,1.9 0.9,2.5 0.6,0.6 1.3,0.9 2.1,0.9 0.9,0 1.7,-0.2 2.4,-0.5 0.8,-0.3 1.4,-0.7 1.9,-1.2 0.5,-0.5 1,-1.1 1.3,-1.8 0.3,-0.7 0.5,-1.4 0.5,-2.2 v -5.1 z"
         id="path41"
         style="fill:#ffffff;fill-opacity:1" />
    </g>
  </g>
</svg>
